<svg width="288" height="288" viewBox="0 0 288 288" version="1.1" xmlns="http://www.w3.org/2000/svg" xmlns:xlink="http://www.w3.org/1999/xlink">
<title>fs-logo-outer-ring</title>
<desc>Created using Figma</desc>
<g id="Canvas" transform="translate(-7081 910)">
<g id="fs-logo-outer-ring">
<use xlink:href="#path0_fill" transform="translate(7081 -910)" fill="#3BFFD2"/>
<use xlink:href="#path1_fill" transform="translate(7081 -910)" fill="#3BFFD2"/>
<use xlink:href="#path2_fill" transform="translate(7081 -910)" fill="#3BFFD2"/>
<use xlink:href="#path3_fill" transform="translate(7081 -910)" fill="#3BFFD2"/>
<use xlink:href="#path4_fill" transform="translate(7081 -910)" fill="#3BFFD2"/>
<use xlink:href="#path5_fill" transform="translate(7081 -910)" fill="#3BFFD2"/>
<use xlink:href="#path6_fill" transform="translate(7081 -910)" fill="#3BFFD2"/>
<use xlink:href="#path7_fill" transform="translate(7081 -910)" fill="#3BFFD2"/>
<use xlink:href="#path8_fill" transform="translate(7081 -910)" fill="#3BFFD2"/>
<use xlink:href="#path9_fill" transform="translate(7081 -910)" fill="#3BFFD2"/>
<use xlink:href="#path10_fill" transform="translate(7081 -910)" fill="#3BFFD2"/>
<use xlink:href="#path11_fill" transform="translate(7081 -910)" fill="#3BFFD2"/>
<use xlink:href="#path12_fill" transform="translate(7081 -910)" fill="#3BFFD2"/>
<use xlink:href="#path13_fill" transform="translate(7081 -910)" fill="#3BFFD2"/>
<use xlink:href="#path14_fill" transform="translate(7081 -910)" fill="#3BFFD2"/>
<use xlink:href="#path15_fill" transform="translate(7081 -910)" fill="#3BFFD2"/>
<use xlink:href="#path16_fill" transform="translate(7081 -910)" fill="#3BFFD2"/>
<use xlink:href="#path17_fill" transform="translate(7081 -910)" fill="#3BFFD2"/>
<use xlink:href="#path18_fill" transform="translate(7081 -910)" fill="#3BFFD2"/>
<use xlink:href="#path19_fill" transform="translate(7081 -910)" fill="#3BFFD2"/>
<use xlink:href="#path20_fill" transform="translate(7081 -910)" fill="#3BFFD2"/>
<use xlink:href="#path21_fill" transform="translate(7081 -910)" fill="#3BFFD2"/>
<use xlink:href="#path22_fill" transform="translate(7081 -910)" fill="#3BFFD2"/>
<use xlink:href="#path23_fill" transform="translate(7081 -910)" fill="#3BFFD2"/>
</g>
</g>
<defs>
<path id="path0_fill" d="M 48.707 47.7809L 53.2413 52.7489L 63.6263 43.1051L 68.0143 47.7809L 57.7756 57.4247L 57.4831 57.7169L 61.8711 62.5388L 77.3754 48.2192L 77.6679 48.0731L 55.5816 24.1096L 55.2891 23.8174L 50.1697 28.4932L 59.2383 38.137L 48.707 47.7809Z"/>
<path id="path1_fill" d="M 47.3902 83.5799L 53.5334 73.6438L 53.6797 73.3516L 29.9844 49.242L 26.1815 55.379L 31.1545 60.347L 25.7427 69.1142L 19.0144 66.6301L 15.2114 72.7671L 46.9514 83.4338L 47.3902 83.5799ZM 47.3902 76.4201L 32.1784 71.1598L 35.9814 65.0228L 47.3902 76.4201Z"/>
<path id="path2_fill" d="M 14.3341 112.219C 15.358 112.365 16.2356 112.365 17.1132 111.927C 17.9908 111.489 18.5759 110.904 19.0147 110.027L 19.1609 110.027C 19.3072 111.635 19.8923 112.804 20.9162 113.826C 21.94 114.849 23.1102 115.58 24.2803 116.018L 25.3042 116.311C 25.5967 116.457 25.8892 116.457 26.0355 116.457C 27.0594 116.603 27.937 116.749 28.8146 116.603C 29.9847 116.457 31.1549 116.164 32.1787 115.434C 33.2026 114.849 34.2265 113.973 34.9578 112.804C 35.8354 111.635 36.4205 110.32 36.8593 108.712L 40.2234 96.8767L 40.3697 96.4384L 9.50731 87.6712L 9.06851 87.5251L 7.16704 94.1005L 18.8684 97.4612L 16.9669 103.744C 16.8207 104.475 16.3819 104.913 15.9431 105.059C 15.5043 105.205 14.9192 105.205 14.3341 105.059L 4.82677 102.283L 2.92529 108.858L 14.0416 112.073C 14.0416 112.219 14.1879 112.219 14.3341 112.219ZM 32.4713 101.406L 31.0086 106.521C 30.5698 107.836 29.9847 108.712 29.1071 109.151C 28.2295 109.589 27.3519 109.735 26.4743 109.443L 25.8892 109.297C 24.8654 109.005 23.9878 108.42 23.6952 107.543C 23.2564 106.667 23.2564 105.644 23.6952 104.329L 25.1579 99.2146L 32.4713 101.406Z"/>
<path id="path3_fill" d="M 33.0564 126.977L 33.0564 126.539L 26.4744 126.393L 26.4744 134.868L 0.438801 134.575L 0 134.575L 0 141.151L 0 141.443L 26.3281 141.881L 26.1818 149.918L 26.1818 150.356L 32.7638 150.356L 33.0564 126.977Z"/>
<path id="path4_fill" d="M 48.7068 209.388C 49.5844 208.365 50.1694 207.05 50.462 205.735C 50.7545 204.42 50.7545 202.813 50.462 201.352C 50.1694 199.744 49.5844 198.137 48.5605 196.384C 47.6829 194.776 46.659 193.607 45.6352 192.731C 44.465 191.708 43.2949 190.977 42.1247 190.539C 40.9546 190.1 39.6382 189.954 38.3218 189.954C 37.0054 190.1 35.8353 190.393 34.5188 191.123L 34.2263 191.269C 32.7636 192.146 31.7398 193.023 31.0084 194.046C 30.2771 195.069 29.8383 196.237 29.692 197.553C 29.5458 198.868 29.5458 200.183 29.8383 201.644C 30.1308 202.959 30.5696 204.42 31.1547 206.174C 31.5935 207.342 31.886 208.365 32.0323 209.096C 32.1786 209.826 32.1786 210.557 32.0323 211.142C 31.886 211.58 31.7398 212.018 31.4472 212.457C 31.1547 212.895 30.8622 213.041 30.4234 213.333C 29.5458 213.772 28.6682 213.918 27.6443 213.479C 26.6204 213.187 25.5966 212.164 24.8652 210.703C 23.6951 208.804 23.4025 207.05 23.8413 205.589C 24.2801 204.128 25.304 202.959 26.7667 202.082L 28.0831 201.352L 24.8652 195.799L 24.719 195.507L 23.11 196.384C 21.6473 197.26 20.3309 198.283 19.3071 199.452C 18.2832 200.621 17.5519 202.082 17.2593 203.543C 16.8205 205.005 16.8205 206.612 17.1131 208.365C 17.4056 210.119 18.1369 211.872 19.1608 213.772C 20.0384 215.379 21.0623 216.694 22.2324 217.717C 23.4025 218.74 24.5727 219.616 25.8891 220.055C 26.3279 220.201 26.7667 220.347 27.2055 220.347C 28.0831 220.493 28.9607 220.639 29.9846 220.493C 31.301 220.347 32.7636 219.909 34.08 219.178L 34.5188 218.886C 37.0054 217.425 38.6143 215.525 38.9069 213.187C 39.3457 210.849 38.9069 208.073 37.7367 204.712C 37.2979 203.397 37.0054 202.374 36.7129 201.498C 36.5666 200.621 36.4203 199.89 36.5666 199.306C 36.5666 198.721 36.7129 198.283 37.0054 197.991C 37.2979 197.553 37.5905 197.26 38.0293 197.114C 38.7606 196.676 39.6382 196.676 40.5158 196.968C 41.3934 197.406 42.271 198.283 43.0023 199.452C 43.8799 200.913 44.1725 202.228 43.8799 203.543C 43.5874 204.712 42.8561 205.589 41.8322 206.174L 40.5158 206.904L 43.7337 212.457L 43.8799 212.749L 45.6352 211.726C 46.9516 211.434 47.9754 210.557 48.7068 209.388Z"/>
<path id="path5_fill" d="M 68.0142 221.516C 65.2351 218.886 62.3098 217.571 59.0919 217.717C 55.874 217.863 52.8024 219.47 49.7308 222.539L 44.7577 227.653C 41.6861 230.721 40.0771 233.936 40.0771 237.151C 40.0771 240.365 41.3936 243.288 44.0264 245.918C 46.0741 247.817 48.1218 249.132 50.3158 249.571C 51.1935 249.717 51.9248 249.863 52.8024 249.717C 56.0203 249.571 59.0919 247.963 62.1635 244.749L 67.1366 239.635C 70.0619 236.566 71.6708 233.498 71.8171 230.283C 72.1097 227.215 70.7933 224.292 68.0142 221.516ZM 47.098 239.342C 46.8054 238.612 46.8054 237.881 46.9517 237.151C 47.098 236.42 47.3905 235.69 47.8293 234.959C 48.2681 234.228 48.8532 233.498 49.5845 232.767L 55.1427 227.215C 55.874 226.484 56.4591 225.9 57.3367 225.461C 58.068 225.023 58.7993 224.731 59.5307 224.584C 60.1158 224.438 60.7008 224.438 61.1396 224.584C 61.2859 224.584 61.4322 224.584 61.5784 224.731C 62.3098 224.877 63.0411 225.461 63.7724 226.046C 64.5038 226.776 64.9426 227.507 65.0888 228.237C 65.3814 228.968 65.3814 229.699 65.2351 230.429C 65.0888 231.16 64.7963 231.89 64.3575 232.621C 63.9187 233.352 63.3336 234.082 62.6023 234.813L 57.0441 240.365C 56.3128 241.096 55.5815 241.68 54.8501 242.265C 54.1188 242.703 53.3875 242.995 52.6561 243.142C 51.9248 243.288 51.1934 243.142 50.6084 242.995C 49.877 242.703 49.1457 242.265 48.4144 241.534C 47.8293 240.804 47.2442 240.073 47.098 239.342Z"/>
<path id="path6_fill" d="M 87.3215 262.137C 86.4439 263.744 85.42 264.767 84.2499 265.206C 83.0797 265.644 81.7633 265.498 80.1544 264.621C 78.5454 263.744 77.6678 262.721 77.5216 261.553C 77.229 260.237 77.5216 258.922 78.3992 257.315L 88.4916 238.904L 88.6379 238.612L 82.6409 235.397L 72.4022 254.247C 70.647 257.607 70.062 260.676 70.7933 263.452C 71.5246 266.374 73.5724 268.712 77.0828 270.612C 78.5454 271.489 80.0081 271.927 81.4708 272.219C 83.226 272.511 84.9812 272.511 86.5901 271.927C 89.3692 271.05 91.7095 268.858 93.4647 265.498L 103.557 247.087L 103.703 246.795L 97.7064 243.58L 87.3215 262.137Z"/>
<path id="path7_fill" d="M 127.399 253.078L 120.817 281.425L 123.596 252.201L 111.748 249.571L 111.309 249.425L 104.142 281.132L 103.996 281.571L 110.286 282.886L 110.724 283.032L 117.16 254.685L 114.381 283.909L 126.375 286.539L 126.667 286.685L 133.981 254.977L 134.127 254.539L 127.691 253.224L 127.399 253.078Z"/>
<path id="path8_fill" d="M 166.598 265.936C 166.452 261.991 165.282 259.069 163.088 257.169C 161.04 255.416 157.822 254.539 153.873 254.685L 142.172 255.269L 141.733 255.269L 142.025 261.845L 145.097 261.699L 146.121 281.279L 143.049 281.425L 143.342 288L 155.336 287.416C 159.431 287.269 162.357 286.1 164.258 284.055C 166.16 282.009 167.037 279.087 166.891 274.995L 166.598 265.936ZM 152.995 281.132L 151.972 261.406L 154.166 261.26C 156.213 261.114 157.53 261.553 158.407 262.283C 159.285 263.16 159.724 264.329 159.724 266.082L 160.163 274.849C 160.309 276.895 159.87 278.356 159.285 279.233C 158.554 280.11 157.237 280.694 155.189 280.694L 152.995 281.132Z"/>
<path id="path9_fill" d="M 204.628 266.959L 204.481 266.374C 203.604 263.598 201.849 261.845 199.655 260.968C 197.461 260.091 194.535 259.945 191.171 260.53C 189.855 260.676 188.684 260.822 187.807 260.822C 186.929 260.822 186.198 260.822 185.613 260.676C 185.028 260.53 184.589 260.384 184.296 260.091C 184.004 259.799 183.711 259.361 183.565 258.922C 183.273 258.046 183.419 257.169 184.004 256.438C 184.589 255.708 185.613 254.977 186.929 254.539C 188.538 253.954 190.001 253.954 191.025 254.539C 192.195 255.123 192.926 255.854 193.365 257.023L 193.804 258.484L 200.386 256.292L 199.655 254.393C 199.216 253.078 198.484 251.909 197.607 250.886C 196.729 249.863 195.559 249.132 194.389 248.548C 193.219 247.964 191.61 247.671 190.001 247.671C 188.392 247.671 186.637 247.964 184.882 248.548C 183.273 249.132 181.81 249.863 180.64 250.74C 179.47 251.616 178.446 252.639 177.861 253.808C 177.129 254.977 176.691 256.146 176.691 257.461C 176.544 258.776 176.691 260.091 177.129 261.406L 177.276 261.699C 177.861 263.306 178.592 264.475 179.47 265.352C 180.347 266.228 181.517 266.959 182.688 267.251C 183.858 267.69 185.32 267.836 186.783 267.836C 188.246 267.836 189.855 267.69 191.317 267.397C 192.634 267.251 193.511 267.105 194.389 267.105C 195.267 267.105 195.852 267.251 196.437 267.397C 196.875 267.543 197.314 267.836 197.607 268.128C 197.899 268.42 198.192 268.858 198.338 269.297C 198.631 270.174 198.484 271.196 198.046 272.073C 197.461 272.95 196.437 273.827 194.828 274.265C 192.78 274.995 191.025 274.995 189.708 274.265C 188.392 273.68 187.368 272.365 186.783 270.758L 186.344 269.297L 179.762 271.489L 180.347 273.242C 180.932 274.849 181.664 276.311 182.688 277.479C 183.711 278.648 184.882 279.671 186.344 280.256C 187.076 280.694 187.953 280.986 188.977 281.132C 189.708 281.279 190.44 281.425 191.171 281.425C 192.926 281.425 194.828 281.132 196.875 280.402C 198.631 279.817 200.093 279.087 201.41 278.21C 202.726 277.333 203.604 276.164 204.335 274.995C 205.066 273.827 205.505 272.511 205.651 271.196C 205.359 269.735 205.213 268.42 204.628 266.959Z"/>
<path id="path10_fill" d="M 117.014 21.9178L 123.303 20.6027L 121.694 9.35159L 124.473 20.0183L 124.62 20.3105L 130.909 18.9954L 127.984 1.89954L 127.984 1.46118L 124.181 2.19178L 126.082 12.5662L 123.449 2.77625L 123.303 2.33789L 117.453 3.50684L 118.915 14.0274L 116.575 4.09132L 116.575 3.79908L 112.772 4.52967L 116.867 21.4794L 117.014 21.9178Z"/>
<path id="path11_fill" d="M 141.294 4.23744L 141.587 14.3196L 137.491 14.4658L 137.637 18.2648L 149.924 17.8265L 149.777 14.0274L 145.682 14.1735L 145.243 4.09132L 149.339 3.94521L 149.192 0L 137.052 0.438356L 137.199 4.38356L 141.294 4.23744Z"/>
<path id="path12_fill" d="M 163.088 4.82192L 161.332 18.7032L 165.428 19.1416L 167.037 5.26027L 171.571 5.84475L 172.156 2.04566L 159.431 0.438355L 159.138 0.438355L 158.553 4.23744L 163.088 4.82192Z"/>
<path id="path13_fill" d="M 182.395 15.4886L 186.929 16.9498L 184.882 23.6712L 188.831 24.694L 193.658 8.03652L 193.804 7.59816L 190.001 6.42921L 187.953 13.1507L 183.419 11.8356L 185.467 5.11414L 181.518 3.94519L 176.691 20.7488L 176.544 21.1872L 180.347 22.3562L 182.395 15.4886Z"/>
<path id="path14_fill" d="M 215.013 37.8448C 215.452 38.4293 216.037 39.0137 216.768 39.5982C 217.646 40.1827 218.377 40.4749 219.255 40.7672C 219.84 40.9133 220.571 40.9133 221.156 40.7672C 222.619 40.4749 223.789 39.5982 224.959 38.137L 229.786 31.1233L 230.956 32L 233.15 28.7854L 227.153 24.6941L 224.959 27.9087L 226.422 28.9315L 221.595 35.9452C 221.156 36.5297 220.717 36.8219 220.279 36.9681C 219.84 37.1142 219.401 36.9681 218.816 36.6758C 218.231 36.2375 217.938 35.9452 217.938 35.3608C 217.792 34.9224 217.938 34.3379 218.377 33.7535L 219.547 32.1461L 216.183 29.8082L 215.013 31.4156C 214.428 32.1461 214.135 33.0229 213.989 33.7535C 213.843 34.484 213.843 35.2146 213.989 35.9452C 214.282 36.5297 214.574 37.1142 215.013 37.8448Z"/>
<path id="path15_fill" d="M 232.565 52.1644C 233.589 53.1872 234.759 53.9178 236.075 54.0639C 236.514 54.2101 236.953 54.2101 237.538 54.2101C 239.293 54.0639 240.902 53.1872 242.657 51.4338L 245.29 48.6575C 246.899 47.0502 247.777 45.2968 247.777 43.5434C 247.777 41.79 247.045 40.1827 245.583 38.7215C 244.12 37.2603 242.365 36.6758 240.61 36.6758C 238.854 36.8219 237.246 37.6986 235.637 39.3059L 233.004 42.0822C 231.395 43.8356 230.517 45.5891 230.517 47.1964C 230.225 49.0959 230.956 50.7032 232.565 52.1644ZM 236.222 50.1187C 235.929 49.9726 235.49 49.8265 235.198 49.3881C 234.905 49.0959 234.613 48.6575 234.466 48.3653C 234.32 48.0731 234.32 47.6347 234.32 47.3425C 234.32 47.0502 234.466 46.6119 234.759 46.3196C 235.052 45.8813 235.344 45.5891 235.637 45.1507L 238.562 42.0822C 239.001 41.6438 239.293 41.3516 239.732 41.2055C 240.025 40.9133 240.463 40.7671 240.756 40.7671C 241.048 40.7671 241.487 40.7671 241.78 40.7671C 242.072 40.9133 242.511 41.0594 242.804 41.4977C 243.096 41.79 243.389 42.2283 243.535 42.5206C 243.681 42.8128 243.681 43.2512 243.681 43.5434C 243.681 43.8356 243.535 44.274 243.242 44.7123C 242.95 45.1507 242.657 45.4429 242.365 45.8813L 239.44 48.9498C 239.147 49.3881 238.708 49.6804 238.269 49.9726C 237.831 50.2649 237.538 50.411 237.245 50.411C 236.807 50.2649 236.514 50.2649 236.222 50.1187Z"/>
<path id="path16_fill" d="M 263.72 60.7854L 261.233 57.5708L 255.675 61.8082L 252.896 58.0091L 258.454 53.7717L 255.968 50.5571L 242.072 61.0776L 241.78 61.3699L 243.974 64.2922L 244.12 64.5845L 249.824 60.347L 252.604 64.1461L 247.338 68.0913L 247.045 68.2374L 249.386 71.452L 263.427 61.0776L 263.72 60.7854Z"/>
<path id="path17_fill" d="M 273.081 77.0046L 261.672 82.9954L 272.057 75.6895L 272.349 75.5434L 269.132 69.2603L 253.188 77.5891L 255.09 81.0959L 266.499 75.2512L 256.114 82.411L 255.821 82.5571L 259.185 88.8402L 274.982 80.5114L 273.081 77.0046Z"/>
<path id="path18_fill" d="M 270.74 124.201C 271.325 124.639 272.057 124.932 272.788 125.078C 273.666 125.224 274.689 125.224 275.86 125.078L 276.737 124.932L 276.006 120.986L 275.128 121.132C 274.836 121.132 274.397 121.279 273.958 121.279C 273.519 121.279 273.227 121.132 272.934 120.986C 272.642 120.84 272.495 120.694 272.203 120.402C 272.057 120.11 271.764 119.671 271.764 119.087C 271.618 118.648 271.764 118.21 271.764 117.772C 271.91 117.479 272.057 117.187 272.203 116.895C 272.495 116.603 272.788 116.457 273.227 116.311C 273.666 116.164 274.104 116.018 274.543 115.872L 278.785 115.142C 279.224 114.995 279.663 114.995 280.101 115.142C 280.54 115.142 280.833 115.288 281.271 115.434C 281.564 115.58 281.857 115.872 282.149 116.164C 282.442 116.457 282.588 116.749 282.588 117.333C 282.734 117.772 282.588 118.21 282.588 118.648C 282.442 118.941 282.295 119.233 282.003 119.525C 281.71 119.817 281.418 119.963 281.125 120.11C 280.833 120.256 280.394 120.402 279.955 120.402L 279.077 120.548L 279.809 124.493L 280.833 124.201C 281.857 124.055 282.734 123.763 283.465 123.324C 284.197 122.886 284.928 122.301 285.367 121.717C 285.806 121.132 286.245 120.256 286.391 119.379C 286.537 118.502 286.537 117.479 286.391 116.457C 286.245 115.434 285.952 114.557 285.367 113.826C 284.928 113.096 284.343 112.365 283.612 111.927C 282.88 111.489 282.003 111.05 281.125 110.904C 280.248 110.758 279.224 110.758 278.054 110.904L 274.251 111.489C 271.91 111.927 270.155 112.804 269.131 114.119C 268.107 115.58 267.669 117.333 268.107 119.233C 268.546 121.717 269.278 123.178 270.74 124.201Z"/>
<path id="path19_fill" d="M 270.155 132.822L 270.155 136.767L 277.176 136.767L 277.176 141.443L 270.155 141.443L 270.155 145.534L 287.561 145.388L 288 145.388L 288 141.443L 281.125 141.443L 280.979 136.767L 288 136.767L 288 132.676L 270.448 132.822L 270.155 132.822Z"/>
<path id="path20_fill" d="M 280.833 154.155C 280.687 154.155 280.54 154.155 280.394 154.009L 276.591 153.425C 274.251 152.986 272.349 153.279 270.887 154.301C 269.424 155.324 268.547 156.785 268.254 158.831C 267.961 160.877 268.254 162.63 269.278 163.945C 270.302 165.26 271.764 165.991 273.812 166.429C 273.958 166.429 274.251 166.575 274.397 166.575L 278.2 167.16C 280.394 167.598 282.296 167.16 283.905 166.283C 285.367 165.26 286.245 163.799 286.684 161.753C 286.976 159.708 286.684 157.954 285.514 156.639C 284.343 155.47 282.881 154.594 280.833 154.155ZM 273.52 162.338C 273.081 162.192 272.788 162.046 272.496 161.753C 272.203 161.461 272.057 161.169 271.911 160.877C 271.764 160.584 271.764 160.146 271.911 159.562C 272.057 158.977 272.203 158.685 272.349 158.393C 272.642 158.1 272.788 157.808 273.081 157.662C 273.373 157.516 273.812 157.37 274.251 157.37C 274.69 157.37 275.275 157.37 275.714 157.516L 279.809 158.247C 279.955 158.247 279.955 158.247 280.102 158.247C 280.54 158.393 280.833 158.393 281.126 158.539C 281.564 158.685 281.857 158.977 282.149 159.123C 282.442 159.416 282.588 159.708 282.734 160C 282.881 160.292 282.881 160.731 282.881 161.169C 282.734 161.607 282.588 162.046 282.442 162.338C 282.149 162.63 282.003 162.922 281.564 163.069C 281.272 163.215 280.833 163.361 280.394 163.361C 279.955 163.361 279.517 163.361 278.931 163.361L 274.836 162.63C 274.397 162.63 273.958 162.484 273.52 162.338Z"/>
<path id="path21_fill" d="M 266.791 174.027C 265.329 174.758 264.159 176.073 263.574 178.119C 262.842 180.164 262.989 181.918 263.72 183.379C 264.451 184.84 265.914 185.863 267.815 186.447L 278.785 190.1L 280.102 186.301L 269.132 182.648C 268.254 182.356 267.669 181.918 267.377 181.333C 267.084 180.749 267.084 180.164 267.377 179.288C 267.669 178.411 268.108 177.973 268.693 177.68C 269.278 177.388 270.009 177.534 270.887 177.826L 281.857 181.479L 283.173 177.68L 272.203 174.027C 269.863 173.443 268.254 173.443 266.791 174.027Z"/>
<path id="path22_fill" d="M 258.893 190.977L 256.991 194.63L 262.696 197.553L 261.233 200.475C 261.087 200.621 260.94 200.913 260.648 200.913C 260.502 200.913 260.209 200.913 259.917 200.767L 254.943 198.137L 253.042 201.644L 258.6 204.566C 259.185 204.858 259.77 205.005 260.355 204.858C 260.794 204.712 261.087 204.566 261.379 204.274C 261.379 205.005 261.525 205.589 261.818 206.174C 262.257 206.904 262.842 207.342 263.427 207.781L 264.012 208.073C 264.451 208.365 264.89 208.511 265.475 208.511C 265.621 208.511 265.767 208.511 266.06 208.658C 266.791 208.658 267.376 208.658 267.961 208.365C 268.546 208.219 269.278 207.781 269.716 207.342C 270.301 206.904 270.74 206.174 271.179 205.297L 274.397 199.16L 258.893 190.977ZM 269.424 201.059L 268.254 203.397C 267.961 203.982 267.522 204.274 267.084 204.42C 266.645 204.566 266.206 204.566 265.767 204.274L 265.475 204.128C 265.036 203.836 264.743 203.543 264.597 203.105C 264.451 202.667 264.597 202.082 264.89 201.498L 266.206 199.16L 269.424 201.059Z"/>
<path id="path23_fill" d="M 247.338 210.703L 249.824 213.626L 246.753 217.717L 243.388 216.11L 240.902 219.47L 257.43 226.776L 257.723 226.922L 261.818 221.662L 250.117 207.489L 247.338 210.703ZM 257.138 222.393L 250.263 219.178L 252.311 216.548L 257.138 222.393Z"/>
</defs>
</svg>
