<svg width="98" height="98" viewBox="0 0 98 98" version="1.1" xmlns="http://www.w3.org/2000/svg" xmlns:xlink="http://www.w3.org/1999/xlink">
<title>fs-logo-inner</title>
<desc>Created using Figma</desc>
<g id="Canvas" transform="translate(-3114 1143)">
<g id="fs-logo-inner">
<g id="Rectangle 2">
<use xlink:href="#path0_fill" transform="translate(3147.77 -1143)" fill="#7D4D1B"/>
</g>
<g id="Rectangle 2">
<use xlink:href="#path0_fill" transform="translate(3147.77 -1143)" fill="url(#paint1_linear)"/>
</g>
<g id="Rectangle 2">
<use xlink:href="#path1_fill" transform="translate(3147.77 -1143)" fill="url(#paint2_linear)" fill-opacity="0.5"/>
</g>
<g id="Rectangle 2">
<use xlink:href="#path2_fill" transform="matrix(0.932118 -0.362155 0.357419 0.933944 3133.25 -1111.53)" fill="#7D4D1B"/>
</g>
<g id="Rectangle 2">
<use xlink:href="#path3_fill" transform="matrix(0.932118 -0.362155 0.357419 0.933944 3133.25 -1111.53)" fill="url(#paint4_linear)"/>
</g>
<g id="Rectangle 2">
<use xlink:href="#path3_fill" transform="matrix(0.932118 -0.362155 0.357419 0.933944 3133.25 -1111.53)" fill="url(#paint5_linear)"/>
</g>
<g id="Rectangle 2">
<use xlink:href="#path4_fill" transform="matrix(0.932118 -0.362155 0.357419 0.933944 3120.65 -1090.8)" fill="#7D4D1B"/>
</g>
<g id="Rectangle 2">
<use xlink:href="#path4_fill" transform="matrix(0.932118 -0.362155 0.357419 0.933944 3120.65 -1090.8)" fill="url(#paint7_linear)"/>
</g>
<g id="Rectangle 2" opacity="0.5">
<use xlink:href="#path4_fill" transform="matrix(0.932118 -0.362155 0.357419 0.933944 3120.65 -1090.8)" fill="url(#paint8_linear)"/>
</g>
<g id="Rectangle 2">
<use xlink:href="#path5_fill" transform="matrix(0.956251 -0.292547 0.289523 0.957171 3111 -1069.4)" fill="#7D4D1B"/>
</g>
<g id="Rectangle 2">
<use xlink:href="#path5_fill" transform="matrix(0.956251 -0.292547 0.289523 0.957171 3111 -1069.4)" fill="url(#paint10_linear)"/>
</g>
<g id="Rectangle 2">
<use xlink:href="#path6_fill" transform="translate(3114.42 -1073.35)" fill="#7D4D1B"/>
</g>
<g id="Rectangle 2">
<use xlink:href="#path7_fill" transform="translate(3128.12 -1073.35)" fill="url(#paint12_linear)"/>
</g>
<g id="Union">
<use xlink:href="#path8_fill" transform="translate(3114.39 -1093.34)" fill="url(#paint13_linear)"/>
</g>
<g id="Ellipse 2" filter="url(#filter0_d)">
<use xlink:href="#path9_fill" transform="translate(3136.68 -1099.23)" fill="#FFFFFF"/>
</g>
<g id="Ellipse 2" filter="url(#filter1_d)">
<use xlink:href="#path9_fill" transform="translate(3169.2 -1099.23)" fill="#FFFFFF"/>
</g>
<g id="Ellipse 3">
<use xlink:href="#path10_fill" transform="translate(3141.81 -1094.05)" fill="#121212"/>
</g>
<g id="Ellipse 3">
<use xlink:href="#path10_fill" transform="translate(3174.34 -1094.05)" fill="#121212"/>
</g>
<g id="Vector 4" filter="url(#filter2_d)">
<use xlink:href="#path11_fill" transform="translate(3141.81 -1068.18)" fill="#FFFFFF"/>
</g>
</g>
</g>
<defs>
<filter id="filter0_d" filterUnits="userSpaceOnUse" x="3133" y="-1103" width="28" height="33" color-interpolation-filters="sRGB">
<feFlood flood-opacity="0" result="BackgroundImageFix"/>
<feColorMatrix in="SourceAlpha" type="matrix" values="0 0 0 0 0 0 0 0 0 0 0 0 0 0 0 0 0 0 255 0"/>
<feOffset dx="0" dy="0"/>
<feGaussianBlur stdDeviation="1.5"/>
<feColorMatrix type="matrix" values="0 0 0 0 0.603922 0 0 0 0 0.258824 0 0 0 0 0.0823529 0 0 0 1 0"/>
<feBlend mode="multiply" in2="BackgroundImageFix" result="effect1_dropShadow"/>
<feBlend mode="normal" in="SourceGraphic" in2="effect1_dropShadow" result="shape"/>
</filter>
<filter id="filter1_d" filterUnits="userSpaceOnUse" x="3166" y="-1103" width="27" height="33" color-interpolation-filters="sRGB">
<feFlood flood-opacity="0" result="BackgroundImageFix"/>
<feColorMatrix in="SourceAlpha" type="matrix" values="0 0 0 0 0 0 0 0 0 0 0 0 0 0 0 0 0 0 255 0"/>
<feOffset dx="0" dy="0"/>
<feGaussianBlur stdDeviation="1.5"/>
<feColorMatrix type="matrix" values="0 0 0 0 0.603922 0 0 0 0 0.258824 0 0 0 0 0.0823529 0 0 0 1 0"/>
<feBlend mode="multiply" in2="BackgroundImageFix" result="effect1_dropShadow"/>
<feBlend mode="normal" in="SourceGraphic" in2="effect1_dropShadow" result="shape"/>
</filter>
<filter id="filter2_d" filterUnits="userSpaceOnUse" x="3139" y="-1071" width="47" height="18" color-interpolation-filters="sRGB">
<feFlood flood-opacity="0" result="BackgroundImageFix"/>
<feColorMatrix in="SourceAlpha" type="matrix" values="0 0 0 0 0 0 0 0 0 0 0 0 0 0 0 0 0 0 255 0"/>
<feOffset dx="0" dy="0"/>
<feGaussianBlur stdDeviation="1.5"/>
<feColorMatrix type="matrix" values="0 0 0 0 0.603922 0 0 0 0 0.258824 0 0 0 0 0.0823529 0 0 0 1 0"/>
<feBlend mode="multiply" in2="BackgroundImageFix" result="effect1_dropShadow"/>
<feBlend mode="normal" in="SourceGraphic" in2="effect1_dropShadow" result="shape"/>
</filter>
<linearGradient id="paint1_linear" x1="0" y1="0" x2="1" y2="0" gradientUnits="userSpaceOnUse" gradientTransform="matrix(-9.41525 29.3225 -24.6858 -8.0472 35.4924 -16.8852)">
<stop offset="0" stop-color="#FFFFFF"/>
<stop offset="0.983425" stop-color="#FFFFFF" stop-opacity="0"/>
</linearGradient>
<linearGradient id="paint2_linear" x1="0" y1="0" x2="1" y2="0" gradientUnits="userSpaceOnUse" gradientTransform="matrix(4.27966 -26.7353 58.7714 58.4186 -26.7786 18.8761)">
<stop offset="0"/>
<stop offset="1" stop-color="#000000" stop-opacity="0"/>
</linearGradient>
<linearGradient id="paint4_linear" x1="0" y1="0" x2="1" y2="0" gradientUnits="userSpaceOnUse" gradientTransform="matrix(-20.2666 33.6954 -59.6486 -17.4537 83.0353 -17.4892)">
<stop offset="0" stop-color="#FFFFFF"/>
<stop offset="0.983425" stop-color="#FFFFFF" stop-opacity="0"/>
</linearGradient>
<linearGradient id="paint5_linear" x1="0" y1="0" x2="1" y2="0" gradientUnits="userSpaceOnUse" gradientTransform="matrix(32.4423 -27.2041 76.0527 89.7503 -57.2113 -6.74462)">
<stop offset="0"/>
<stop offset="1" stop-color="#000000" stop-opacity="0"/>
</linearGradient>
<linearGradient id="paint7_linear" x1="0" y1="0" x2="1" y2="0" gradientUnits="userSpaceOnUse" gradientTransform="matrix(-34.2325 36.5907 -106.851 -31.1597 126.912 -13.888)">
<stop offset="0" stop-color="#FFFFFF"/>
<stop offset="0.983425" stop-color="#FFFFFF" stop-opacity="0"/>
</linearGradient>
<linearGradient id="paint8_linear" x1="0" y1="0" x2="1" y2="0" gradientUnits="userSpaceOnUse" gradientTransform="matrix(44.895 -24.4793 106.953 81.3781 -82.436 -3.35432)">
<stop offset="0"/>
<stop offset="1" stop-color="#000000" stop-opacity="0"/>
</linearGradient>
<linearGradient id="paint10_linear" x1="0" y1="0" x2="1" y2="0" gradientUnits="userSpaceOnUse" gradientTransform="matrix(-47.5967 43.2933 -161.403 -28.8748 180.991 -19.5553)">
<stop offset="0" stop-color="#FFFFFF"/>
<stop offset="0.983425" stop-color="#FFFFFF" stop-opacity="0"/>
</linearGradient>
<linearGradient id="paint12_linear" x1="0" y1="0" x2="1" y2="0" gradientUnits="userSpaceOnUse" gradientTransform="matrix(-28.2458 47.4335 -133.377 6.50077 138.587 -36.8851)">
<stop offset="0" stop-color="#FFFFFF"/>
<stop offset="1" stop-color="#FFFFFF" stop-opacity="0"/>
</linearGradient>
<linearGradient id="paint13_linear" x1="0" y1="0" x2="1" y2="0" gradientUnits="userSpaceOnUse" gradientTransform="matrix(41.9391 -35.3464 136.532 29.9105 -97.3321 55.9025)">
<stop offset="0"/>
<stop offset="1" stop-color="#000000" stop-opacity="0"/>
</linearGradient>
<path id="path0_fill" d="M 18.3917 33.9433L 20.5856 33.091C 27.6426 30.3491 31.1574 22.3621 28.4362 15.2516C 24.3078 -0.333721 9.45454 -1.93541 3.463 1.51429C 7.74266 3.23915 9.10675 7.90157 5.17485 11.8634C 0.686689 16.3857 -1.10558 21.3501 0.686657 26.0331C 3.40786 33.1437 11.3347 36.6852 18.3917 33.9433Z"/>
<path id="path1_fill" d="M 18.3917 33.9433L 20.5856 33.091C 27.3859 30.4488 30.8971 22.9362 28.7085 16.0306C 28.5425 15.5068 28.3678 14.9769 28.211 14.4503C 25.9283 6.7831 20.9689 2.68056 15.8962 0.973589C 10.9795 -0.680872 8.82905 8.18138 5.17485 11.8634C 0.686734 16.3857 -1.10555 21.35 0.686603 26.0329L 0.68671 26.0332C 3.40797 33.1437 11.3347 36.6852 18.3917 33.9433Z"/>
<path id="path2_fill" d="M 0 13.7854C 0 6.17195 6.17195 0 13.7854 0L 33.2103 0C 40.8238 0 46.9958 6.17195 46.9958 13.7854L 46.9958 13.7854C 46.9958 21.3989 40.8238 27.5709 33.2103 27.5709L 13.7854 27.5709C 6.17195 27.5709 0 21.3989 0 13.7854L 0 13.7854Z"/>
<path id="path3_fill" d="M 0 14.0793C 0 6.30351 6.30351 0 14.0793 0L 32.8863 0C 40.6621 0 46.9656 6.30351 46.9656 14.0793L 46.9656 14.0793C 46.9656 21.855 40.6621 28.1585 32.8863 28.1585L 14.0793 28.1585C 6.30351 28.1585 0 21.855 0 14.0793L 0 14.0793Z"/>
<path id="path4_fill" d="M 0 13.7854C 0 6.17195 6.17195 0 13.7854 0L 57.1084 0C 64.7219 0 70.8939 6.17195 70.8939 13.7854L 70.8939 13.7854C 70.8939 21.3989 64.7219 27.5709 57.1084 27.5709L 13.7854 27.5709C 6.17195 27.5709 0 21.3989 0 13.7854L 0 13.7854Z"/>
<path id="path5_fill" d="M 0 13.7901C 0 6.17403 6.17403 0 13.7901 0L 79.5954 0C 87.2114 0 93.3855 6.17403 93.3855 13.7901L 93.3855 13.7901C 93.3855 21.4061 87.2114 27.5801 79.5954 27.5801L 13.7901 27.5801C 6.17403 27.5801 0 21.4061 0 13.7901L 0 13.7901Z"/>
<path id="path6_fill" d="M 0 13.7988C 0 6.17795 6.17795 0 13.7988 0L 83.7774 0C 91.3983 0 97.5763 6.17795 97.5763 13.7988L 97.5763 13.7988C 97.5763 21.4197 91.3983 27.5977 83.7774 27.5977L 13.7988 27.5977C 6.17795 27.5977 0 21.4197 0 13.7988L 0 13.7988Z"/>
<path id="path7_fill" d="M 0 27.5977L 70.1864 27.5977C 77.7499 27.5977 83.8814 21.4197 83.8814 13.7988C 83.8814 6.17795 77.7499 0 70.1864 0C 50.3288 0 15.1215 18.3985 0 27.5977Z"/>
<path id="path8_fill" fill-rule="evenodd" d="M 88.5503 20.7948C 93.0944 22.443 96.5236 26.4442 97.3916 31.3395C 97.5332 32.1323 97.6071 32.9486 97.6071 33.7821C 97.6071 34.6156 97.5332 35.4319 97.3916 36.2247C 96.247 42.6804 90.6484 47.581 83.9123 47.581L 83.8083 47.581L 13.8298 47.581L 13.7258 47.581C 6.26509 47.5263 0.213092 41.5501 0.0351139 34.1191C -0.415814 27.8254 3.51143 21.8177 9.79171 19.8927L 72.708 0.608373C 79.9897 -1.62356 87.6772 2.47764 89.8784 9.76865C 91.0393 13.6141 90.4421 17.5788 88.5503 20.7948Z"/>
<path id="path9_fill" d="M 20.5424 12.9364C 20.5424 20.081 15.9438 25.8728 10.2712 25.8728C 4.59857 25.8728 0 20.081 0 12.9364C 0 5.79183 4.59857 0 10.2712 0C 15.9438 0 20.5424 5.79183 20.5424 12.9364Z"/>
<path id="path10_fill" d="M 10.2712 7.76185C 10.2712 12.0486 7.9719 15.5237 5.13559 15.5237C 2.29928 15.5237 0 12.0486 0 7.76185C 0 3.4751 2.29928 0 5.13559 0C 7.9719 0 10.2712 3.4751 10.2712 7.76185Z"/>
<path id="path11_fill" d="M 20.5424 12.074C 10.7034 12.074 2.9329 5.53837 0.620125 1.45674C 0.256864 0.815652 0.836434 0.159897 1.56351 0.279534C 4.53122 0.767856 11.5007 1.72486 20.5424 1.72486C 29.2919 1.72486 36.1009 0.828707 39.2211 0.328294C 40.0147 0.201015 40.6142 0.983174 40.1678 1.65152C 37.4349 5.74276 30.2263 12.074 20.5424 12.074Z"/>
</defs>
</svg>
