<svg width="50" height="50" viewBox="0 0 50 50" version="1.1" xmlns="http://www.w3.org/2000/svg" xmlns:xlink="http://www.w3.org/1999/xlink">
<title>icn-info</title>
<desc>Created using Figma</desc>
<g id="Canvas" transform="translate(-6037 3)">
<g id="icn-info">
<g id="Ellipse">
<mask id="mask0_outline_ins">
<use xlink:href="#path0_fill" fill="white" transform="translate(6037 -3)"/>
</mask>
<g mask="url(#mask0_outline_ins)">
<use xlink:href="#path1_stroke_2x" transform="translate(6037 -3)" fill="#3BFFD2"/>
</g>
</g>
<g id="i">
<use xlink:href="#path2_fill" transform="translate(6056.73 13.2537)" fill="#3BFFD2"/>
</g>
</g>
</g>
<defs>
<path id="path0_fill" d="M 50 25C 50 38.8071 38.8071 50 25 50C 11.1929 50 0 38.8071 0 25C 0 11.1929 11.1929 0 25 0C 38.8071 0 50 11.1929 50 25Z"/>
<path id="path1_stroke_2x" d="M 48 25C 48 37.7025 37.7025 48 25 48L 25 52C 39.9117 52 52 39.9117 52 25L 48 25ZM 25 48C 12.2975 48 2 37.7025 2 25L -2 25C -2 39.9117 10.0883 52 25 52L 25 48ZM 2 25C 2 12.2975 12.2975 2 25 2L 25 -2C 10.0883 -2 -2 10.0883 -2 25L 2 25ZM 25 2C 37.7025 2 48 12.2975 48 25L 52 25C 52 10.0883 39.9117 -2 25 -2L 25 2Z"/>
<path id="path2_fill" d="M 0 14.8607L 4.0398 14.8607L 4.0398 8.70481L 0.288557 8.70481L 0.288557 5.81924L 7.06965 5.81924L 7.06965 14.8607L 10.5323 14.8607L 10.5323 17.7463L 0 17.7463L 0 14.8607ZM 7.81509 2.28441C 7.81509 2.60503 7.75097 2.90962 7.62272 3.19818C 7.51051 3.4707 7.35019 3.71117 7.14179 3.91957C 6.93339 4.11194 6.68491 4.27225 6.39635 4.4005C 6.12383 4.51271 5.83527 4.56882 5.53068 4.56882C 5.21006 4.56882 4.91349 4.51271 4.64096 4.4005C 4.36844 4.27225 4.12797 4.11194 3.91957 3.91957C 3.71117 3.71117 3.54284 3.4707 3.41459 3.19818C 3.30238 2.90962 3.24627 2.60503 3.24627 2.28441C 3.24627 1.96379 3.30238 1.66722 3.41459 1.39469C 3.54284 1.10614 3.71117 0.86567 3.91957 0.6733C 4.12797 0.464897 4.36844 0.304587 4.64096 0.192369C 4.91349 0.0641225 5.21006 0 5.53068 0C 5.83527 0 6.12383 0.0641225 6.39635 0.192369C 6.68491 0.304587 6.93339 0.464897 7.14179 0.6733C 7.35019 0.86567 7.51051 1.10614 7.62272 1.39469C 7.75097 1.66722 7.81509 1.96379 7.81509 2.28441Z"/>
</defs>
</svg>
